HIERARCHY
ROOT RootJoint
{
    OFFSET   0.000000   0.000000   0.000000
    CHANNELS 6 Xposition Yposition Zposition Xrotation Yrotation Zrotation
    JOINT pelvis_lowerback
    {
        OFFSET   0.000000   0.093605   0.000000
        CHANNELS 3 Xrotation Yrotation Zrotation
        JOINT lowerback_torso
        {
            OFFSET   0.000000   0.100000   0.000000
            CHANNELS 3 Xrotation Yrotation Zrotation
            JOINT torso_head
            {
                OFFSET   0.000000   0.282350   0.000000
                CHANNELS 3 Xrotation Yrotation Zrotation
                End Site
                {
                    OFFSET   0.000000   0.192650   0.000000
                }
            }
            JOINT rTorso_Clavicle
            {
                OFFSET  -0.001000   0.157500   0.000000
                CHANNELS 3 Xrotation Yrotation Zrotation
                JOINT rShoulder
                {
                    OFFSET  -0.117647   0.000000   0.000000
                    CHANNELS 3 Xrotation Yrotation Zrotation
                    JOINT rElbow
                    {
                        OFFSET  -0.245000   0.000000   0.000000
                        CHANNELS 3 Xrotation Yrotation Zrotation
                        JOINT rWrist
                        {
                            OFFSET  -0.240000   0.000000   0.000000
                            CHANNELS 3 Xrotation Yrotation Zrotation
                            End Site
                            {
                                OFFSET  -0.116353  -0.002500   0.000000
                            }
                        }
                    }
                }
            }
            JOINT lTorso_Clavicle
            {
                OFFSET   0.001000   0.157500   0.000000
                CHANNELS 3 Xrotation Yrotation Zrotation
                JOINT lShoulder
                {
                    OFFSET   0.117647   0.000000   0.000000
                    CHANNELS 3 Xrotation Yrotation Zrotation
                    JOINT lElbow
                    {
                        OFFSET   0.245000   0.000000   0.000000
                        CHANNELS 3 Xrotation Yrotation Zrotation
                        JOINT lWrist
                        {
                            OFFSET   0.240000   0.000000   0.000000
                            CHANNELS 3 Xrotation Yrotation Zrotation
                            End Site
                            {
                                OFFSET   0.116353  -0.002500   0.000000
                            }
                        }
                    }
                }
            }
        }
    }
    JOINT rHip
    {
        OFFSET  -0.100000  -0.051395   0.000000
        CHANNELS 3 Xrotation Yrotation Zrotation
        JOINT rKnee
        {
            OFFSET   0.000000  -0.410000   0.000000
            CHANNELS 3 Xrotation Yrotation Zrotation
            JOINT rAnkle
            {
                OFFSET   0.000000  -0.390000   0.000000
                CHANNELS 3 Xrotation Yrotation Zrotation
                JOINT rToeJoint
                {
                    OFFSET   0.000000  -0.050000   0.130000
                    CHANNELS 3 Xrotation Yrotation Zrotation
                    End Site
                    {
                        OFFSET  -0.010000   0.002000   0.060000
                    }
                }
            }
        }
    }
    JOINT lHip
    {
        OFFSET   0.100000  -0.051395   0.000000
        CHANNELS 3 Xrotation Yrotation Zrotation
        JOINT lKnee
        {
            OFFSET   0.000000  -0.410000   0.000000
            CHANNELS 3 Xrotation Yrotation Zrotation
            JOINT lAnkle
            {
                OFFSET   0.000000  -0.390000   0.000000
                CHANNELS 3 Xrotation Yrotation Zrotation
                JOINT lToeJoint
                {
                    OFFSET   0.000000  -0.050000   0.130000
                    CHANNELS 3 Xrotation Yrotation Zrotation
                    End Site
                    {
                        OFFSET   0.010000   0.002000   0.060000
                    }
                }
            }
        }
    }
}
MOTION
Frames: 8
Frame Time:   0.008333
 -1.788066   0.869709   4.404451   1.444535  36.671846  -7.081862   8.018788   1.890510   3.947433  14.867916  -4.104539   4.529086   0.298377   3.213706  -0.365148   3.321244   0.302949  -2.959107   0.675567   0.746534  35.975942  -0.018518  60.955666   0.017138  -1.729500   2.383669  -3.109722  -0.967496  -9.240578  -2.910024   0.890025  -1.190124 -42.995374   0.004557 -27.230443   0.013464   0.549369   0.151857   0.915717 -31.933155  -0.578018  -6.402848  39.960074   0.030299   0.030292   9.091173  -4.847242   1.346422 -23.402965   0.015895   0.030365 -14.615881   1.685621   9.453898  45.361939   0.004614   0.004577 -26.071980   1.731400  -0.101154 -23.927820  -0.036544  -0.028538
 -1.789708   0.867503   4.397873   1.642769  36.793495  -7.683825   8.624038   1.850116   4.042853  15.280462  -4.475504   4.679802   0.438442   3.450878  -0.472054   3.340176   0.323569  -2.617471   1.035844   0.367255  36.561493  -0.032944  59.807387   0.026704  -1.664717   2.220659  -3.180608  -1.566992 -10.249334  -3.472295   0.142477  -1.889672 -42.527561   0.008787 -27.724951   0.017461   0.528763  -0.172285   1.278336 -32.932347  -0.915802  -5.858145  41.192833   0.022681   0.024741   8.707056  -4.588459   1.393132 -22.056299   0.009133   0.027104 -15.130074   1.249491   9.837783  45.506381   0.003654   0.003497 -27.880722   0.958542  -0.478405 -21.897116  -0.016723  -0.033295
 -1.791081   0.866700   4.391922   1.859606  36.651378  -8.298254   9.120763   1.875314   4.141804  15.615575  -4.754606   4.799610   0.560037   3.669101  -0.587678   3.375588   0.387035  -2.234223   1.391770   0.051983  37.178857  -0.042139  58.726948   0.030840  -1.607044   1.961486  -3.079101  -2.086833 -11.145669  -4.034580  -0.508228  -2.527240 -42.158279   0.011914 -28.179649   0.019865   0.519200  -0.460326   1.426310 -33.907295  -1.317649  -5.121312  42.293642   0.014611   0.018982   8.354095  -4.339887   1.443279 -20.778119   0.001976   0.022318 -15.491088   0.761465  10.212018  45.356904   0.003206   0.003323 -29.098859   0.190160  -0.814654 -20.025812  -0.001904  -0.043011
 -1.792175   0.866803   4.386426   2.091646  36.371764  -8.923477   9.528580   1.911771   4.266407  15.883797  -4.990653   4.913967   0.664115   3.871730  -0.698184   3.411286   0.452076  -1.868674   1.730529  -0.229607  37.773270  -0.046228  57.725164   0.030701  -1.550748   1.722787  -2.898497  -2.552280 -11.950565  -4.580129  -1.089091  -3.109804 -41.851791   0.013881 -28.598499   0.021064   0.506638  -0.706749   1.461638 -34.843910  -1.755137  -4.286419  43.328625   0.007341   0.014022   8.023653  -4.105844   1.493637 -19.616247  -0.004147   0.017708 -15.754037   0.272702  10.583238  45.015742   0.003429   0.004244 -29.936033  -0.526071  -1.109529 -18.304691   0.007982  -0.051959
 -1.792999   0.867493   4.381285   2.330010  36.015150  -9.546356   9.863172   1.940614   4.415958  16.095900  -5.206989   5.031849   0.754524   4.060155  -0.798893   3.443345   0.504416  -1.542621   2.049580  -0.492155  38.325453  -0.046604  56.794842   0.027888  -1.495519   1.517831  -2.708663  -2.976174 -12.680269  -5.094511  -1.614781  -3.645024 -41.584711   0.014857 -28.986070   0.021410   0.492097  -0.921053   1.443778 -35.729301  -2.206777  -3.413875  44.310074   0.001315   0.010012   7.714908  -3.886280   1.543156 -18.558596  -0.008862   0.013794 -15.946519  -0.200776  10.947583  44.549165   0.004035   0.005833 -30.513652  -1.191768  -1.363935 -16.723870   0.014005  -0.058683
 -1.793594   0.869035   4.376874   2.443111  35.943660 -10.075344  10.223789   1.849557   4.585291  16.327427  -5.487858   5.207182   0.837928   4.231498  -0.881817   3.484957   0.521573  -1.212963   2.363351  -0.755145  38.853455  -0.045609  55.918379   0.024701  -1.445347   1.295642  -2.545799  -3.389406 -13.383345  -5.584715  -2.113594  -4.158885 -41.337327   0.015121 -29.349438   0.020945   0.479728  -1.125064   1.417775 -36.331800  -2.672658  -2.619527  45.262076  -0.002757   0.008823   7.425985  -3.682904   1.590490 -17.593525  -0.011780   0.012723 -16.388996  -0.263942  11.330744  44.590433   0.003274   0.004663 -30.142047  -1.366060  -1.496875 -15.297137   0.013016  -0.047827
 -1.793908   0.870899   4.373099   2.554695  35.933411 -10.615617  10.486765   1.745948   4.799573  16.514793  -5.772060   5.397053   0.918811   4.392023  -0.956654   3.539803   0.500120  -0.923075   2.675560  -1.018643  39.344023  -0.042830  55.097174   0.020678  -1.397412   1.064299  -2.370073  -3.768547 -14.024025  -6.042256  -2.569535  -4.635884 -41.123389   0.014739 -29.690641   0.019826   0.467536  -1.328717   1.359754 -36.871393  -3.116031  -1.818813  46.193604  -0.005611   0.008715   7.157850  -3.492367   1.635627 -16.709706  -0.013471   0.012531 -16.696817  -0.351536  11.728892  44.450336   0.002481   0.003699 -29.735134  -1.588163  -1.599656 -13.960882   0.011882  -0.039576
 -1.793431   0.874628   4.370044   1.929528  35.594973 -10.240562  11.347952   1.566319   4.462747  16.624730  -5.914984   5.400609   1.122475   4.486469  -0.920608   3.495123   0.654205  -0.627148   3.159778  -0.689481  40.003286  -0.048391  53.994056   0.022983  -1.317489   0.882276  -2.480805  -3.968000 -14.490197  -6.294317  -2.861643  -4.983735 -41.060983   0.012832 -29.805567   0.017079   0.484400  -1.765837   1.548709 -36.639230  -3.260270  -1.249554  46.551565  -0.006279   0.006693   7.355046  -3.250284   1.785313 -16.076440  -0.014818   0.010106 -15.820436  -0.232748  11.646436  43.357126   0.003059   0.006861 -28.799639  -2.036518  -1.644354 -12.942051   0.011879  -0.038934
